<?xml version="1.0" standalone="no"?>
<!DOCTYPE svg PUBLIC "-//W3C//DTD SVG 20010904//EN"
 "http://www.w3.org/TR/2001/REC-SVG-20010904/DTD/svg10.dtd">
<svg version="1.0" xmlns="http://www.w3.org/2000/svg"
 width="400.000000pt" height="400.000000pt" viewBox="0 0 400.000000 400.000000"
 preserveAspectRatio="xMidYMid meet">
<metadata>
Created by potrace 1.11, written by Peter Selinger 2001-2013
</metadata>
<g transform="translate(0.000000,400.000000) scale(0.100000,-0.100000)"
fill="#000000" stroke="none">
<path d="M0 2000 l0 -2000 1390 0 c907 0 1390 4 1390 10 0 9 -8 12 -26 9 -4 0
-10 5 -15 13 -6 10 -11 9 -23 -7 -8 -11 -18 -17 -22 -12 -4 4 -2 7 4 7 6 0 9
6 6 14 -3 8 -1 16 4 20 9 5 92 -31 102 -45 6 -9 143 -5 158 5 6 3 13 2 17 -4
8 -14 55 -13 55 1 0 6 -7 9 -15 5 -8 -3 -15 -3 -15 0 0 11 89 44 104 38 12 -4
16 0 16 15 0 11 11 28 25 37 24 16 27 15 45 -1 15 -14 17 -22 9 -37 -11 -20
-11 -20 -25 1 -14 20 -44 29 -44 14 0 -4 10 -18 23 -31 15 -17 17 -23 6 -20
-9 4 -20 -2 -27 -13 -12 -19 -2 -19 423 -19 l435 0 0 2000 0 2000 -757 -1
c-688 -1 -753 -2 -708 -16 28 -8 68 -18 90 -23 44 -9 202 -49 224 -56 8 -2 12
-6 9 -9 -2 -2 -74 11 -159 31 -362 82 -193 74 -1516 74 l-1183 0 0 -2000z
m2913 1883 c-7 -2 -19 -2 -25 0 -7 3 -2 5 12 5 14 0 19 -2 13 -5z m-913 -1205
c0 -4 -7 -8 -15 -8 -8 0 -15 4 -15 8 0 5 7 9 15 9 8 0 15 -4 15 -9z m454 -3
c6 -17 4 -18 -18 -9 -20 8 -21 24 -2 24 8 0 16 -7 20 -15z m-597 -1 c-3 -3
-12 -4 -19 -1 -8 3 -5 6 6 6 11 1 17 -2 13 -5z m397 -115 c-19 -21 -55 -22
-61 -3 -4 11 56 34 70 26 5 -2 0 -13 -9 -23z m51 0 c11 -16 1 -19 -13 -3 -7 8
-8 14 -3 14 5 0 13 -5 16 -11z m818 -2061 c-5 -155 -8 -178 -30 -226 -27 -57
-49 -77 -133 -119 -68 -35 -80 -59 -24 -49 43 9 95 37 136 74 26 24 27 24 25
4 0 -11 -4 -19 -8 -16 -13 8 -33 -26 -22 -37 7 -7 17 -4 32 12 11 12 24 19 28
15 15 -15 -73 -77 -140 -97 -104 -32 -182 -18 -262 49 -38 31 -49 49 -30 49 8
0 15 -7 15 -14 0 -9 5 -11 13 -7 6 4 9 4 5 0 -8 -10 18 -39 50 -55 17 -9 22
-9 22 1 0 9 3 9 10 -2 5 -8 10 -10 10 -5 0 6 4 4 9 -3 4 -7 20 -15 35 -16 21
-3 26 1 25 18 0 13 -3 16 -6 7 -5 -11 -7 -11 -14 0 -8 12 -10 12 -18 0 -7 -11
-10 -10 -18 3 -5 9 -23 18 -40 19 -17 1 -29 5 -26 9 2 5 -8 19 -24 33 -15 13
-22 25 -15 25 6 0 12 -4 12 -9 0 -5 15 -16 33 -24 42 -21 117 -37 117 -27 0
13 -51 50 -67 50 -36 0 -103 63 -103 97 0 4 9 -6 20 -24 13 -22 41 -43 88 -65
l69 -33 64 33 c129 68 145 102 151 328 l5 161 -76 -4 c-42 -2 -116 -11 -164
-19 -49 -9 -91 -13 -93 -11 -7 7 172 36 241 40 33 2 70 4 82 5 l23 2 -7 -172z
m-211 90 c-8 -8 -9 -4 -5 13 4 13 8 18 11 10 2 -7 -1 -18 -6 -23z m48 -46 c0
-1 -9 2 -20 8 -11 6 -20 15 -20 20 0 6 9 2 20 -7 11 -10 20 -19 20 -21z m-977
-19 c-7 -2 -19 -2 -25 0 -7 3 -2 5 12 5 14 0 19 -2 13 -5z m1021 -94 c9 -48 8
-61 -6 -53 -7 5 -50 7 -95 7 -87 -2 -89 -1 -77 45 5 17 14 22 40 22 31 0 34
-3 35 -32 1 -27 2 -28 6 -8 7 46 12 50 51 50 36 0 40 -3 46 -31z m-277 -1 c-3
-8 -6 -5 -6 6 -1 11 2 17 5 13 3 -3 4 -12 1 -19z m-10 -65 c-3 -10 -5 -4 -5
12 0 17 2 24 5 18 2 -7 2 -21 0 -30z m293 -17 c0 -3 -4 -8 -10 -11 -5 -3 -10
-1 -10 4 0 6 5 11 10 11 6 0 10 -2 10 -4z m310 -46 c5 0 11 8 13 18 4 16 5 16
6 -1 1 -23 -19 -30 -50 -18 -17 7 -19 10 -6 10 9 1 18 7 18 14 1 6 3 4 6 -5 2
-10 8 -18 13 -18z m-370 16 c0 -3 -4 -8 -10 -11 -5 -3 -10 -1 -10 4 0 6 5 11
10 11 6 0 10 -2 10 -4z m21 -9 c-6 -8 -7 -18 -3 -22 4 -5 1 -5 -6 -1 -10 6
-10 11 -1 22 6 8 14 14 16 14 3 0 0 -6 -6 -13z m-371 -21 c0 -2 -9 -6 -20 -9
-11 -3 -18 -1 -14 4 5 9 34 13 34 5z m718 -44 c-4 -2 -6 -8 -2 -13 3 -5 -7 -9
-21 -9 -15 0 -33 -7 -42 -15 -14 -14 -13 -15 11 -9 17 4 26 2 26 -6 0 -6 -4
-9 -9 -5 -5 3 -12 1 -16 -5 -3 -5 1 -10 9 -10 9 0 16 -4 16 -10 0 -14 -5 -13
-40 9 -28 17 -30 20 -16 34 9 9 16 20 16 26 0 5 5 22 10 36 l10 26 28 -23 c16
-13 25 -25 20 -26z m-412 10 c-18 -18 -29 -12 -20 11 3 9 12 13 21 10 13 -5
13 -8 -1 -21z m253 6 c-10 -18 -9 -20 5 -15 21 8 21 -11 -1 -35 -20 -22 -31
-23 -55 -1 -18 16 -17 17 14 44 40 34 53 36 37 7z m-564 2 c-3 -5 -14 -10 -23
-9 -14 0 -13 2 3 9 27 11 27 11 20 0z m376 -2 c0 -10 2 -10 6 0 6 16 28 15 42
-2 8 -10 5 -19 -14 -40 -25 -27 -45 -34 -45 -16 0 6 10 10 23 10 18 0 19 2 7
10 -13 8 -13 10 1 10 9 0 16 7 16 15 0 8 -4 15 -9 15 -4 0 -8 -4 -8 -10 0 -15
-19 -12 -36 5 -14 13 -14 15 0 15 9 0 16 -6 17 -12z m84 3 c3 -5 1 -12 -4 -15
-5 -3 -11 1 -15 9 -6 16 9 21 19 6z m-192 -18 c-3 -7 0 -13 7 -13 6 0 8 -4 5
-10 -3 -5 1 -10 9 -10 14 0 14 -3 4 -20 -7 -10 -15 -16 -18 -12 -3 4 -18 8
-34 9 -16 0 -32 7 -37 14 -12 20 -2 23 16 5 19 -18 31 -20 40 -6 3 6 -1 10
-10 10 -9 0 -15 6 -12 13 2 6 -5 17 -17 24 -18 10 -17 11 16 10 25 -1 34 -5
31 -14z m-163 -13 c25 -19 25 -19 5 -34 -14 -10 -25 -11 -37 -5 -22 12 -24 31
-3 23 18 -7 20 7 3 24 -19 19 5 13 32 -8z m100 6 c0 -2 -9 -6 -20 -9 -11 -3
-18 -1 -14 4 5 9 34 13 34 5z m120 -18 c0 -9 3 -9 12 0 7 7 18 12 25 12 11 0
11 -4 1 -20 -7 -11 -19 -20 -26 -20 -7 0 -11 -4 -8 -8 2 -4 -4 -13 -15 -20
-22 -14 -24 -9 -8 19 7 15 7 24 -2 35 -9 11 -8 14 5 14 9 0 16 -5 16 -12z
m-310 -12 c0 -2 -7 -6 -15 -10 -8 -3 -15 -1 -15 4 0 6 7 10 15 10 8 0 15 -2
15 -4z m0 -31 c-7 -8 -17 -15 -23 -15 -6 0 -2 7 9 15 25 19 30 19 14 0z m60
-72 c0 -7 -9 -13 -21 -13 -16 0 -20 -4 -14 -17 5 -14 3 -15 -6 -6 -15 15 -3
47 16 40 9 -4 12 -1 8 9 -4 11 -13 14 -29 10 -30 -8 -31 2 -2 13 24 8 47 -10
48 -36z m588 37 c6 0 12 -4 12 -10 0 -5 -7 -10 -16 -10 -8 0 -13 -4 -9 -9 3
-5 1 -12 -4 -16 -6 -3 -18 9 -27 26 -16 32 -16 32 8 26 12 -4 29 -7 36 -7z
m-558 -68 c-1 -19 -29 -42 -44 -36 -13 5 -14 9 -5 21 7 7 19 11 27 8 10 -4 12
0 8 10 -3 9 -2 13 4 10 6 -3 10 -9 10 -13z"/>
<path d="M3005 116 c-48 -28 -57 -47 -20 -40 39 7 75 33 68 50 -3 8 -6 14 -7
13 0 0 -19 -11 -41 -23z"/>
<path d="M2900 74 c0 -8 10 -14 25 -14 15 0 25 6 25 14 0 8 -10 14 -25 14 -15
0 -25 -6 -25 -14z"/>
<path d="M3087 23 c5 -15 3 -16 -8 -5 -17 16 -29 15 -29 -3 0 -10 10 -14 35
-13 27 1 34 5 30 15 -3 8 -5 17 -5 19 0 2 -7 4 -15 4 -9 0 -12 -6 -8 -17z"/>
</g>
</svg>
